<?xml version="1.0" standalone="no"?>
<!DOCTYPE svg PUBLIC "-//W3C//DTD SVG 20010904//EN"
 "http://www.w3.org/TR/2001/REC-SVG-20010904/DTD/svg10.dtd">
<svg version="1.0" xmlns="http://www.w3.org/2000/svg"
 width="700.000000pt" height="700.000000pt" viewBox="0 0 700.000000 700.000000"
 preserveAspectRatio="xMidYMid meet">
<metadata>
Created by potrace 1.11, written by Peter Selinger 2001-2013
</metadata>
<g transform="translate(0.000000,700.000000) scale(0.100000,-0.100000)"
fill="#000000" stroke="none">
<path d="M3067 5984 c-1 -1 -67 -4 -145 -8 -79 -3 -147 -8 -150 -10 -4 -2 -34
-7 -67 -10 -165 -19 -432 -91 -610 -166 -506 -212 -894 -539 -1219 -1024 -25
-38 -46 -70 -46 -71 0 -2 -18 -32 -39 -67 -42 -69 -144 -268 -184 -359 -76
-173 -50 -337 72 -459 129 -129 327 -151 481 -54 74 46 109 95 199 278 86 175
149 283 217 374 l33 43 0 -108 c-1 -105 7 -223 16 -253 2 -8 7 -31 10 -50 38
-224 149 -474 301 -675 50 -67 174 -200 221 -239 l22 -19 276 275 275 274 -88
90 c-105 107 -170 212 -214 344 -27 85 -31 110 -34 235 -3 121 0 152 20 225
24 92 61 185 83 211 7 8 13 19 13 23 0 11 94 131 129 164 126 119 264 192 431
229 69 15 301 8 375 -11 292 -76 530 -314 605 -606 22 -83 23 -95 24 -205 1
-150 -18 -246 -74 -365 -21 -45 -27 -56 -65 -117 -70 -109 -211 -230 -341
-293 -87 -41 -136 -80 -175 -137 -138 -200 -69 -468 149 -575 62 -31 74 -33
167 -33 114 0 138 9 309 105 113 64 233 156 349 267 85 80 286 267 323 300 24
21 192 174 241 219 18 18 77 72 130 120 54 49 122 112 153 141 30 28 71 65 90
82 l35 31 533 0 532 0 0 946 0 946 -1681 -4 c-924 -2 -1681 -4 -1682 -4z"/>
<path d="M2288 3066 l-967 -969 377 -377 c207 -208 385 -386 394 -396 16 -19
1 -19 -753 -19 l-769 0 0 -147 0 -148 2930 0 2930 0 0 148 0 147 -1009 0
c-886 0 -1008 2 -998 15 7 8 182 185 390 393 208 208 377 383 375 388 -2 6
-198 205 -436 443 l-433 434 -92 -63 c-157 -107 -315 -184 -408 -200 -239 -42
-473 89 -563 315 -24 60 -31 101 -30 190 1 98 8 130 50 218 46 95 124 173 232
230 l81 43 -157 155 c-86 85 -161 158 -167 162 -5 4 -445 -429 -977 -962z"/>
</g>
</svg>
